<?xml version="1.0" encoding="utf-8"?>
<!-- Generator: Adobe Illustrator 25.2.1, SVG Export Plug-In . SVG Version: 6.00 Build 0)  -->
<svg version="1.1" id="Camada_1" xmlns="http://www.w3.org/2000/svg" xmlns:xlink="http://www.w3.org/1999/xlink" x="0px" y="0px"
	 viewBox="0 0 331.93 417.4" style="enable-background:new 0 0 331.93 417.4;" xml:space="preserve">
<style type="text/css">
	.st0{clip-path:url(#SVGID_2_);fill:#4DAD33;}
</style>
<g>
	<defs>
		<rect id="SVGID_1_" width="331.93" height="417.4"/>
	</defs>
	<clipPath id="SVGID_2_">
		<use xlink:href="#SVGID_1_"  style="overflow:visible;"/>
	</clipPath>
	<path class="st0" d="M79.67,234.44c8.23,1.98,15.34,0.36,21.34-5.89c7.6-7.91,15.93-15.17,23.06-23.48
		c10.71-12.47,14.55-27.81,15.83-43.86c1.64-20.56-0.29-40.92-3.56-61.2c-1.09-6.74,1.83-12.13,6.96-16.15
		c9.52-7.48,20.17-7.92,31.17-3.95c17.83,6.43,28.21,20.01,34.43,37.14c8.66,23.83,9.22,48.16,3.53,72.74
		c-0.22,0.95-0.32,1.93-0.57,3.48c2.04,0,3.82,0,5.6,0c25.51,0,51.01-0.06,76.51,0.01c25.2,0.07,41.19,22.18,35.82,45.99
		c-1.71,7.6-6.7,13.21-13.35,18c10.07,6.71,15.9,15.55,15.46,27.57c-0.43,11.85-7.04,20.02-16.72,26.15
		c21.71,17.03,15.84,46.43-6.79,57.54c1.2,4.43,3.09,8.77,3.46,13.24c1.45,17.68-8.63,30.35-27.07,34.39
		c-3.7,0.81-7.58,1.16-11.38,1.17c-44.17,0.07-88.35,0.07-132.53,0c-17.28-0.03-33.11-5.29-47.37-14.78
		c-4.55-3.03-8.82-4.09-13.91-3.19c-3.87,10.08-6.71,11.98-17.89,11.98c-15.67,0-31.34,0.03-47.01-0.01
		c-9.1-0.02-14.67-5.43-14.67-14.56c-0.05-53.68-0.05-107.37,0-161.05c0.01-9.07,5.65-14.48,14.78-14.5
		c15.34-0.03,30.67-0.01,46.01-0.01C73.03,221.21,76.04,223.33,79.67,234.44 M79.26,379.99c3.1,0,5.9,0.18,8.66-0.04
		c5.26-0.4,9.3,1.29,13.53,4.76c10.43,8.58,23.09,13.24,36.35,13.4c45.5,0.56,91.01,0.32,136.52,0.09c4.31-0.02,9.07-1.26,12.76-3.4
		c2.7-1.57,5.15-5.36,5.69-8.51c1.17-6.8-3.15-11.11-10.82-11.99c-3.63-0.41-7.35-0.13-10.94-0.74c-4.77-0.8-8.05-5.16-7.8-9.6
		c0.27-4.86,3.93-8.61,9.07-8.93c3.65-0.23,7.42,0.42,10.98-0.23c6.14-1.12,12.36-2.39,18.16-4.62c5.81-2.23,8.34-7.51,8.26-13.65
		c-0.07-5.72-3.87-8.96-8.63-11.2c-1.94-0.91-3.99-1.8-6.08-2.16c-6.05-1.04-12.15-1.77-18.23-2.69c-4.59-0.69-7.86-4.29-8.08-8.76
		c-0.23-4.76,2.31-8.4,6.99-9.6c2.08-0.53,4.34-0.34,6.41-0.91c7.95-2.19,16.01-4.11,23.69-7.02c4.49-1.71,7.37-5.88,7.11-11.1
		c-0.25-5.01-3.53-8.12-7.79-10.19c-2.23-1.08-4.56-2.18-6.96-2.62c-6.37-1.15-12.78-2.16-19.21-2.81c-4.04-0.4-7.04-1.92-8.7-5.61
		c-2.92-6.47,1.55-12.56,9.17-13.63c7.35-1.03,14.84-2.16,21.82-4.55c8.68-2.97,11.69-8.51,10.43-15.89
		c-1.56-9.17-7.6-15.24-16.27-15.4c-14.66-0.28-29.32-0.14-43.98-0.14c-17.48,0-34.97,0.17-52.45,0.01
		c-7.72-0.07-12.02-6.67-9.15-13.92c5.66-14.33,7.95-29.19,7.16-44.49c-0.78-15.12-3.69-29.77-12.17-42.68
		c-5.12-7.8-12.15-13.27-21.73-14.49c-6.06-0.77-7.79,0.99-6.92,6.71c2.93,19.33,4.29,38.72,2.88,58.27
		c-1.34,18.58-6.01,36.08-17.06,51.37c-11.03,15.25-24.41,28.19-40.14,38.54c-2.33,1.54-5.56,2.1-8.43,2.34
		c-4.58,0.38-9.22,0.1-14.06,0.1V379.99z"/>
	<path class="st0" d="M74.74,32.32c2.02-2.51,3.64-5.67,6.22-7.45c3.2-2.21,7.33-1.89,10.16,1c9.56,9.77,19,19.65,28.19,29.77
		c3.46,3.81,2.53,9.75-1.26,13.02c-3.82,3.31-8.88,3.4-12.61-0.41c-9.21-9.41-18.25-18.99-27.18-28.67
		C76.8,37.99,76.26,35.55,74.74,32.32"/>
	<path class="st0" d="M236.16,20.48c-0.19,0.64-0.43,2.33-1.17,3.76c-5.53,10.59-11.15,21.13-16.78,31.67
		c-2.09,3.91-5.36,5.8-9.83,5.27c-4.06-0.48-6.81-2.83-7.75-6.7c-0.47-1.95-0.5-4.49,0.37-6.2c5.78-11.39,11.75-22.68,17.89-33.89
		c2.32-4.23,6.53-5.25,10.82-3.93C233.81,11.71,236.23,14.87,236.16,20.48"/>
	<path class="st0" d="M163.91,41.38c0.16,7.26-3.27,11.47-8.66,11.8c-5.81,0.36-9.66-3.32-10.34-9.68
		c-1.14-10.75-2.36-21.49-3.56-32.23c-0.62-5.5,2.67-10.29,7.67-11.12c5.51-0.92,10.25,2.34,11.02,8.17
		C161.56,19.7,162.73,31.11,163.91,41.38"/>
</g>
</svg>
