<?xml version="1.0" encoding="utf-8"?>
<!-- Generator: Adobe Illustrator 25.2.1, SVG Export Plug-In . SVG Version: 6.00 Build 0)  -->
<svg version="1.1" id="Camada_1" xmlns="http://www.w3.org/2000/svg" xmlns:xlink="http://www.w3.org/1999/xlink" x="0px" y="0px"
	 viewBox="0 0 510.65 511.01" style="enable-background:new 0 0 510.65 511.01;" xml:space="preserve">
<style type="text/css">
	.st0{clip-path:url(#SVGID_2_);fill:#4DAD33;}
</style>
<g>
	<defs>
		<rect id="SVGID_1_" width="510.65" height="511.01"/>
	</defs>
	<clipPath id="SVGID_2_">
		<use xlink:href="#SVGID_1_"  style="overflow:visible;"/>
	</clipPath>
	<path class="st0" d="M213.23,0c5.4,0.75,10.81,1.39,16.19,2.26c49.3,7.97,90.43,30.6,122.91,68.65c3.75,4.4,7.08,9.15,10.79,13.98
		c14.9-14.59,29.45-28.93,44.13-43.13c2.71-2.62,5.73-5.14,9.05-6.89c10.31-5.42,22.94-2.79,30.31,5.91
		c7.88,9.31,8.45,22.12,1.23,31.71c-1.79,2.38-3.9,4.53-6.04,6.62c-67.55,66.28-135.12,132.54-202.69,198.79
		c-12.31,12.07-26.69,12.46-38.86,0.83c-33.79-32.28-67.52-64.63-101.22-97.01c-10.05-9.66-12.26-20.53-6.72-31.5
		c7.05-13.97,24.78-18.32,37.39-9.1c1.87,1.37,3.58,2.98,5.26,4.58c26.56,25.41,53.1,50.83,79.65,76.25
		c1.32,1.26,2.68,2.47,4.52,4.18c35.64-34.94,71.21-69.8,106.83-104.71c-14.48-24.03-34.34-41.98-59.05-54.46
		c-26.3-13.28-54.26-18.62-83.57-15.09c-47.61,5.74-84.58,28.95-110.26,69.41c-18.44,29.05-25.39,61.12-21.5,95.28
		c4.16,36.55,19.83,67.49,46.79,92.61c24.28,22.62,53.11,36.06,85.98,38.83c53.96,4.55,98.83-14.18,132.8-56.78
		c19.51-24.46,29.48-52.79,31-84.08c0.07-1.53,0.57-3.46,1.59-4.47c14.74-14.62,29.61-29.12,45.25-44.44
		c10.6,56.63,0.59,108.15-31.11,155.7c10.43,2.31,17.97,8.29,24.99,15.34c33.44,33.6,66.89,67.18,100.56,100.54
		c9.43,9.34,18.21,18.85,21.23,32.28v12.98c-0.66,2.02-1.36,4.03-1.97,6.06c-5.16,17.3-21.32,29.54-39.3,29.87
		c-13.33,0.24-24.02-5.31-33.22-14.53c-35.72-35.79-71.45-71.57-107.27-107.26c-7.05-7.02-13.08-14.53-15.17-24.49
		c-0.58,0.08-0.95,0.03-1.22,0.18c-1.16,0.64-2.32,1.3-3.43,2.02c-40.44,26.07-84.57,36.51-132.41,31.31
		c-39.75-4.32-75.37-19.06-105.46-45.15C16.53,305.67-6.65,245.44,1.64,173.39c3.59-31.26,14.67-59.93,32.42-85.73
		C66.91,39.9,112.42,11.72,169.57,2.29c5.55-0.92,11.14-1.53,16.72-2.29H213.23z"/>
</g>
</svg>
