<?xml version="1.0" encoding="utf-8"?>
<!-- Generator: Adobe Illustrator 25.2.1, SVG Export Plug-In . SVG Version: 6.00 Build 0)  -->
<svg version="1.1" id="Camada_1" xmlns="http://www.w3.org/2000/svg" xmlns:xlink="http://www.w3.org/1999/xlink" x="0px" y="0px"
	 viewBox="0 0 488.78 504.2" style="enable-background:new 0 0 488.78 504.2;" xml:space="preserve">
<style type="text/css">
	.st0{clip-path:url(#SVGID_2_);fill:#4DAD33;}
</style>
<g>
	<defs>
		<rect id="SVGID_1_" width="488.78" height="504.2"/>
	</defs>
	<clipPath id="SVGID_2_">
		<use xlink:href="#SVGID_1_"  style="overflow:visible;"/>
	</clipPath>
	<path class="st0" d="M217.79,0c11.53,2.24,23.21,3.86,34.54,6.83c31.68,8.3,59.29,24.31,83.29,46.4
		c23.58,21.7,40.93,47.61,51,78.19c8.44,25.63,9.31,51.75,5,78.19c-6.08,37.3-22.08,69.73-48.27,96.96
		c-20.73,21.55-45.6,36.71-74.01,45.92c-25.21,8.17-51.08,11.51-77.55,9.49c-12.58-0.96-25.12-2.32-37.7-3.22
		c-1.9-0.14-4.09,0.93-5.85,1.94c-26.69,15.37-53.34,30.82-80,46.25c-1.4,0.81-2.83,1.58-5.11,2.85v-5.65
		c0-26.09-0.07-52.19,0.08-78.28c0.02-3.73-0.98-6.28-3.84-8.83C26.68,287.73,7.9,251.09,1.97,207.67
		c-3.53-25.85-2.66-51.37,5.48-76.3C18.81,96.53,39.53,68.2,68.36,45.75c31.65-24.65,67.58-38.88,107.3-43.78
		c4.86-0.6,9.7-1.31,14.55-1.97C199.41,0,208.6,0,217.79,0 M94.65,362.14c2.16-1.35,3.67-2.24,5.12-3.2
		c14.87-9.91,29.68-19.92,44.67-29.63c2.24-1.45,5.42-2.23,8.1-2.07c13.57,0.79,27.11,2.04,40.67,3.02
		c25.34,1.84,50.07-1.35,73.88-10.21c30.93-11.51,55.66-30.95,73.15-59.17c13.48-21.75,20.38-45.49,21.8-71.02
		c1.38-24.83-3.69-48.14-15.03-70.16c-13.31-25.86-32.74-46.16-57.01-61.86c-26.05-16.85-54.65-26.14-85.73-26.12
		c-28.45,0.02-56,5.55-81.97,17.58C97.65,60.69,76.34,76.63,60.08,98.53c-28.54,38.44-35.01,81.05-21.95,126.73
		c8.54,29.88,25.9,54.25,49.13,74.45c5.39,4.69,7.95,9.27,7.59,16.61c-0.67,13.43-0.19,26.91-0.19,40.37
		C94.65,358.26,94.65,359.83,94.65,362.14"/>
	<path class="st0" d="M425.34,144.45c30.9,26.59,52.53,58.34,60.21,98.24c10.13,52.61-3.82,99.12-38.71,139.15
		c-9.93,11.4-22.24,20.76-33.72,30.74c-2.39,2.07-3.32,3.89-3.31,6.93c0.1,26.26,0.06,52.52,0.06,78.79v5.9
		c-2.13-1.18-3.7-1.97-5.18-2.88c-24.84-15.29-49.83-30.37-74.41-46.07c-6.27-4-12.13-5.01-19.27-4.05
		c-54.48,7.35-103.46-5.07-145.63-41.29c-5.96-5.12-11.76-10.42-18.35-16.26c1.9-0.24,2.89-0.46,3.89-0.47
		c12.29-0.06,24.59-0.21,36.87-0.02c2.58,0.04,5.51,0.85,7.65,2.26c13.98,9.21,28.07,18.09,44.15,23.37
		c17.71,5.82,35.89,7.47,54.35,6.23c8.97-0.6,17.85-2.34,26.81-3.17c2.36-0.22,5.27,0.36,7.23,1.63
		c15.26,9.92,30.34,20.1,45.49,30.19c1.33,0.89,2.7,1.72,4.6,2.92c0.12-1.89,0.28-3.27,0.28-4.64c0.02-14.94,0.18-29.88-0.1-44.81
		c-0.08-4.44,1.25-6.92,5.15-9.25c24.57-14.71,44.75-34.1,57.7-59.76c25.97-51.47,20.2-100.32-14.25-146.08
		c-2.42-3.21-3.78-6.12-3.21-10.22c0.85-6.16,1.35-12.39,1.63-18.61C425.55,157.23,425.34,151.21,425.34,144.45"/>
	<path class="st0" d="M126.17,181.34c-0.03,13.19-10.57,23.61-23.83,23.55c-13.15-0.06-23.53-10.68-23.42-23.96
		c0.1-12.92,10.6-23.29,23.59-23.3C115.71,157.61,126.2,168.11,126.17,181.34"/>
	<path class="st0" d="M220.74,181.37c-0.04,13.19-10.59,23.59-23.86,23.52c-13.14-0.07-23.51-10.7-23.4-23.98
		c0.11-12.91,10.62-23.27,23.62-23.27C210.3,157.62,220.77,168.14,220.74,181.37"/>
	<path class="st0" d="M291.7,157.62c13.2,0.01,23.65,10.54,23.6,23.78c-0.05,13.17-10.63,23.56-23.9,23.48
		c-12.94-0.08-23.32-10.55-23.35-23.53C268.02,168.12,278.5,157.61,291.7,157.62"/>
</g>
</svg>
