<?xml version="1.0" encoding="utf-8"?>
<!-- Generator: Adobe Illustrator 25.2.1, SVG Export Plug-In . SVG Version: 6.00 Build 0)  -->
<svg version="1.1" id="Camada_1" xmlns="http://www.w3.org/2000/svg" xmlns:xlink="http://www.w3.org/1999/xlink" x="0px" y="0px"
	 viewBox="0 0 511.12 432.94" style="enable-background:new 0 0 511.12 432.94;" xml:space="preserve">
<style type="text/css">
	.st0{clip-path:url(#SVGID_2_);fill:#4DAD33;}
</style>
<g>
	<defs>
		<rect id="SVGID_1_" width="511.12" height="432.94"/>
	</defs>
	<clipPath id="SVGID_2_">
		<use xlink:href="#SVGID_1_"  style="overflow:visible;"/>
	</clipPath>
	<path class="st0" d="M511.12,182.5c-2.91,5.5-7.5,7.21-13.61,7.08c-13.97-0.31-27.95-0.2-41.92-0.06
		c-10.01,0.1-17.49-4.05-23.06-12.31c-0.95-1.41-3.3-2.6-5.03-2.63c-11.14-0.24-22.29-0.09-33.43-0.13
		c-24.14-0.07-45.31-7.94-62.9-24.6c-18.11-17.16-36.04-34.53-53.89-51.96c-9.12-8.9-12.22-19.73-7.97-31.92
		c4.18-11.99,13.19-18.44,25.64-19.88c7.2-0.84,14.21,0.89,19.62,5.62c15.26,13.37,30.23,27.07,45.09,40.88
		c4.42,4.1,4.24,10.37,0.43,14.28c-4.02,4.13-10.01,4.07-15.14-0.57C331.9,94.48,319,82.45,305.9,70.65c-2-1.8-4.6-3.32-7.17-4.01
		c-3.86-1.03-7.18,0.56-9.36,4.05c-2.25,3.61-2.11,7.21,0.32,10.7c0.57,0.81,1.22,1.59,1.93,2.28c17.7,17.12,35.3,34.33,53.15,51.29
		c12.37,11.75,27.15,18.47,44.33,18.92c13.24,0.35,26.5,0.07,39.98,0.07V96.44c-7.82-1.89-15.52-3.19-22.83-5.64
		c-13.11-4.38-23.49-12.83-32.24-23.42c-8.37-10.12-16.64-20.35-25.41-30.12c-9.8-10.91-22.36-16.53-37.07-16.59
		c-34.6-0.14-69.2-0.09-103.8-0.06c-7.62,0.01-12.26,4.27-12.12,10.82c0.13,6.26,4.81,10.33,12.14,10.36
		c12.98,0.06,25.95-0.03,38.93,0.04c7.36,0.04,11.81,3.82,11.94,9.87c0.12,5.26-3.16,9.83-8.41,9.91
		c-16.61,0.26-33.31,0.91-49.84-0.34c-14.18-1.07-25.36-15.85-25.12-30.32c0.25-15.55,11.9-28.61,27.04-30.19
		c3.63-0.38,7.29-0.62,10.93-0.63c30.27-0.05,60.55,0.27,90.82-0.12c26.89-0.35,48.84,9.04,65.6,30.39
		c7.6,9.67,15.52,19.12,23.76,28.25c9.18,10.17,20.91,15.63,34.67,16.28c1.4,0.07,3.53-0.96,4.21-2.13
		c7.72-13.25,20.88-14.53,34.03-12.32c4.96,0.83,8.01,5.75,7.48,10.31c-0.57,4.9-4.06,8.43-9.16,8.93
		c-2.97,0.29-5.98,0.23-8.97,0.26c-4.04,0.05-6.23,1.97-6.23,6.09c-0.01,25.79-0.03,51.58,0.01,77.37c0.01,3.72,1.89,6.02,5.78,6.04
		c11.78,0.06,23.56,0.02,35.95,0.02v-5.66c0-19.3,0-38.6,0-57.9c0-7.46,2.12-11.38,6.95-12.91c5.02-1.6,8.73,0.29,13,6.62V182.5z"/>
	<path class="st0" d="M511.12,72.67c-2.08,3.44-4.26,6.68-8.85,7.03c-5.01,0.38-9.22-2.3-10.67-6.95c-1.34-4.29,0.66-9.2,4.67-11.46
		c4.2-2.37,9.26-1.44,12.48,2.33c0.84,0.98,1.58,2.04,2.37,3.07V72.67z"/>
	<path class="st0" d="M19.98,263.4c0,21.1,0.02,41.39-0.02,61.68c-0.01,6.32-3.25,10.49-8.41,11.14
		c-6.62,0.83-11.44-3.45-11.49-10.54c-0.09-15.31-0.03-30.61-0.03-45.92c0-8.48-0.07-16.97,0.02-25.45
		c0.08-6.86,3.99-10.82,10.88-10.86c15.63-0.09,31.27-0.15,46.9,0.04c8.37,0.1,15.2,3.86,19.58,10.94c2.09,3.38,4.41,4.06,8,4.1
		c14.95,0.13,29.96-0.17,44.83,1.06c17.69,1.46,33.51,8.69,46.52,20.72c19.54,18.06,38.65,36.6,57.59,55.3
		c12.1,11.95,12.35,29.83,1.32,41.8c-10.82,11.73-28.57,13.05-41.32,2.11c-14.5-12.46-28.4-25.62-42.4-38.65
		c-4.72-4.39-4.91-10.52-1.06-14.66c3.93-4.24,10.03-4.31,15.11,0.28c13.09,11.81,25.96,23.87,39.1,35.62
		c2.22,1.99,5.21,3.56,8.1,4.24c3.67,0.87,6.74-1.02,8.72-4.37c1.96-3.31,1.9-6.61-0.07-9.86c-0.6-0.99-1.35-1.91-2.18-2.71
		c-17.94-17.35-35.79-34.78-53.88-51.96c-12.69-12.04-28.03-18.2-45.5-18.6c-12.6-0.29-25.21-0.06-38.13-0.06v58.08
		c5.92,1.16,11.98,1.95,17.82,3.57c15.23,4.22,27.37,13.17,37.35,25.29c8.25,10.01,16.41,20.11,25.06,29.76
		c9.91,11.07,22.6,16.74,37.5,16.78c34.6,0.12,69.19,0.08,103.79,0.04c7.31-0.01,11.89-4.22,11.89-10.55
		c0-6.3-4.67-10.57-11.89-10.62c-11.81-0.08-23.62,0.04-35.43-0.05c-7.49-0.06-11.97-4.16-11.8-10.5c0.13-4.77,3.3-9.15,8.06-9.23
		c15.61-0.26,31.35-1.12,46.82,0.43c14.49,1.46,25.29,16.52,24.54,30.72c-0.84,16.02-11.86,28.02-27.53,29.68
		c-4.94,0.52-9.95,0.59-14.92,0.6c-28.44,0.05-56.89-0.38-85.33,0.14c-27.89,0.51-50.42-9.33-67.56-31.57
		c-7.1-9.21-14.67-18.09-22.43-26.75c-9.14-10.21-20.77-15.85-34.52-16.56c-1.62-0.08-3.99,1.18-4.89,2.55
		c-5.47,8.35-13.02,12.55-22.96,12.55c-2.83,0-5.66,0.13-8.48-0.04c-6.47-0.39-10.59-4.5-10.5-10.29c0.08-5.64,4.01-9.39,10.39-9.79
		c2.49-0.16,4.99-0.02,7.48-0.09c5.62-0.16,7.09-1.55,7.11-7.19c0.06-13.48,0.02-26.95,0.02-40.43c0-11.48,0.04-22.96-0.02-34.44
		c-0.03-5.84-1.62-7.42-7.4-7.45C43.05,263.37,31.78,263.4,19.98,263.4"/>
	<path class="st0" d="M255.1,175.8c7.74-3.99,14.41-8.59,21.79-11.03c26.5-8.76,55.27,10.19,58.69,37.95
		c2.21,17.9-3.99,32.17-17.97,43.3c-17.17,13.67-34.33,27.36-51.48,41.05c-8.4,6.7-11.18,6.77-19.6,0.11
		c-17.48-13.81-34.97-27.62-52.38-41.52c-16.01-12.78-21.63-32.06-15.27-51.87c5.55-17.29,22.55-30.19,41.76-31.07
		c11.66-0.54,22.27,2.91,31.33,10.55C253.34,174.43,254.76,175.52,255.1,175.8 M256.21,269.11c10.26-8.16,20.14-16.01,30-23.88
		c7.53-6.01,15.51-11.57,22.43-18.22c7.92-7.61,9.38-17.55,5.49-27.6c-4.02-10.38-12.33-16.11-23.41-16.52
		c-10.86-0.41-19.23,4.58-24.23,14.4c-2.28,4.46-5.16,7.98-10.46,7.88c-5.06-0.1-7.8-3.57-10-7.84
		c-5.04-9.77-13.35-14.9-24.22-14.43c-11.69,0.51-20.2,6.6-23.92,17.88c-3.71,11.23-0.67,21.23,8.4,28.66
		C222.6,242.81,239.29,255.71,256.21,269.11"/>
	<path class="st0" d="M386.25,227.21c0.08-5.53,4.36-9.77,9.83-9.74c5.64,0.03,10.27,4.69,10.1,10.15
		c-0.16,5.35-4.69,9.77-10.01,9.77C390.47,237.4,386.16,232.97,386.25,227.21"/>
	<path class="st0" d="M388.47,284.25c0.11,5.82-4.02,10.11-9.79,10.15c-5.31,0.04-9.88-4.26-10.11-9.53
		c-0.24-5.35,4.4-10.32,9.75-10.46C384.04,274.27,388.36,278.46,388.47,284.25"/>
	<path class="st0" d="M140.77,152.64c-0.08,5.79-4.32,9.94-10.1,9.89c-5.36-0.05-9.76-4.42-9.81-9.73
		c-0.04-5.57,4.46-10.2,9.92-10.2C136.41,142.6,140.84,147.06,140.77,152.64"/>
	<path class="st0" d="M396,207.45c-5.55-0.12-9.82-4.75-9.61-10.41c0.2-5.43,4.51-9.53,9.98-9.51c5.6,0.02,9.96,4.49,9.88,10.12
		C406.18,203.21,401.61,207.57,396,207.45"/>
	<path class="st0" d="M118.13,230.43c5.69,0.04,9.66,4.01,9.69,9.68c0.04,5.71-4.41,10.3-9.91,10.21c-5.24-0.09-9.81-4.66-9.91-9.91
		C107.89,234.89,112.46,230.38,118.13,230.43"/>
	<path class="st0" d="M294.48,353.28c-0.03,5.62-4.51,10.01-10.12,9.91c-5.52-0.1-9.93-4.76-9.77-10.33
		c0.16-5.38,4.48-9.54,9.94-9.58C290.26,343.25,294.51,347.53,294.48,353.28"/>
	<path class="st0" d="M231.59,79.41c0.07,5.67-4.26,10.14-9.86,10.2c-5.57,0.06-10.08-4.45-10.03-10.04
		c0.04-5.43,4.27-9.74,9.67-9.86C227.18,69.57,231.52,73.69,231.59,79.41"/>
	<path class="st0" d="M147.18,117.53c5.57,0.04,9.86,4.26,9.85,9.69c-0.01,5.96-4.61,10.46-10.49,10.25
		c-5.07-0.18-9.69-5.22-9.49-10.34C137.26,121.8,141.8,117.5,147.18,117.53"/>
	<path class="st0" d="M116.12,200.42c5.56,0.04,9.69,4.19,9.74,9.78c0.05,5.72-4.41,10.28-9.97,10.18
		c-5.23-0.09-9.86-4.71-9.94-9.93C105.85,204.97,110.51,200.38,116.12,200.42"/>
	<path class="st0" d="M400.32,256.67c0.08,5.66-4.39,10.3-9.91,10.3c-5.2-0.01-9.85-4.61-9.98-9.88c-0.13-5.22,4.39-10.1,9.54-10.3
		C395.52,246.56,400.24,251.07,400.32,256.67"/>
	<path class="st0" d="M329.19,328.72c0.11-5.52,4.31-9.5,10-9.48c5.59,0.02,10.23,4.79,9.96,10.23c-0.26,5.13-5.09,9.72-10.23,9.7
		C333.39,339.15,329.08,334.52,329.19,328.72"/>
	<path class="st0" d="M313.2,334.13c5.52,0.01,10.22,4.7,10.08,10.06c-0.14,5.3-5.03,9.97-10.44,9.96c-5.16-0.01-9.59-4.6-9.64-9.98
		C303.15,338.53,307.54,334.12,313.2,334.13"/>
	<path class="st0" d="M183.72,89.33c0.28-5.24,5.17-9.68,10.33-9.38c5.46,0.32,9.89,5.33,9.54,10.78c-0.34,5.3-5.12,9.55-10.42,9.27
		C187.44,99.69,183.4,95.13,183.72,89.33"/>
	<path class="st0" d="M158.46,106.26c-0.09-5.42,4.12-9.71,9.71-9.89c5.59-0.18,10.33,4.38,10.3,9.93
		c-0.03,5.1-4.85,10.02-9.88,10.08C162.91,116.44,158.55,112.09,158.46,106.26"/>
	<path class="st0" d="M351.36,309.1c-0.08-5.67,4.42-10.37,9.88-10.34c5.28,0.03,9.88,4.53,10.05,9.82
		c0.17,5.27-4.67,10.26-10.06,10.38C356.06,319.06,351.43,314.44,351.36,309.1"/>
	<path class="st0" d="M120.36,190.6c-5.47,0.02-9.9-4.27-9.97-9.64c-0.07-5.68,4.34-10.3,9.87-10.35c5.31-0.05,9.91,4.43,9.99,9.73
		C130.34,186.11,126.04,190.58,120.36,190.6"/>
	<path class="st0" d="M9.85,353.15c5.67-0.07,10.15,4.34,10.09,9.93c-0.06,5.22-4.6,9.84-9.79,9.95
		c-5.31,0.11-10.14-4.74-10.09-10.15C0.1,357.52,4.43,353.22,9.85,353.15"/>
</g>
</svg>
