<?xml version="1.0" encoding="utf-8"?>
<!-- Generator: Adobe Illustrator 25.2.1, SVG Export Plug-In . SVG Version: 6.00 Build 0)  -->
<svg version="1.1" id="Camada_1" xmlns="http://www.w3.org/2000/svg" xmlns:xlink="http://www.w3.org/1999/xlink" x="0px" y="0px"
	 viewBox="0 0 393.85 393.48" style="enable-background:new 0 0 393.85 393.48;" xml:space="preserve">
<style type="text/css">
	.st0{clip-path:url(#SVGID_2_);fill:#4DAD33;}
</style>
<g>
	<defs>
		<rect id="SVGID_1_" width="393.85" height="393.48"/>
	</defs>
	<clipPath id="SVGID_2_">
		<use xlink:href="#SVGID_1_"  style="overflow:visible;"/>
	</clipPath>
	<path class="st0" d="M197.25,287.42c-49.91-0.43-90.64-40.13-90.61-90.66c0.03-50.46,40.36-90.38,90.82-90.22
		c50.96,0.16,90.1,40.21,90.16,90.22C287.66,247.89,246.9,287.15,197.25,287.42 M136.12,153.88c-7.37,10.35-11.94,22.11-13.2,35.17
		h37.8c0.67-8.2,1.31-16.19,1.92-23.64C153.78,161.55,145.11,157.79,136.12,153.88 M271.53,188.69
		c-1.51-13.24-5.81-25.12-13.36-35.21c-9.07,3.93-17.79,7.7-26.5,11.46c0.63,7.69,1.28,15.68,1.94,23.75H271.53z M136.09,239.96
		c9.08-3.89,17.88-7.67,26.54-11.38c-0.63-7.77-1.27-15.7-1.92-23.75h-37.87C124.28,217.98,128.61,229.78,136.09,239.96
		 M271.51,204.9H233.6c-0.67,8.15-1.31,16.08-1.92,23.52c8.79,3.82,17.51,7.6,26.56,11.52C265.61,229.84,269.99,217.99,271.51,204.9
		 M178.19,168.42c-0.49,6.4-1,13.23-1.53,20.16h41.63c-0.59-7.07-1.16-13.9-1.68-20.16H178.19z M178.09,224.66h38.5
		c0.49-6.46,1-13.12,1.51-19.83h-41.58C177.07,211.68,177.59,218.34,178.09,224.66 M213.5,152.3c-2.49-9.33-5.03-18.29-10.42-26.09
		c-3.93-5.7-7.39-5.77-11.38-0.13c-5.52,7.81-7.97,16.87-10.44,26.24C192.08,154.01,202.62,154.04,213.5,152.3 M180.81,241.24
		c2.43,6.74,4.5,13.2,7.11,19.44c1.29,3.09,3.35,5.94,5.46,8.58c2.61,3.26,5.52,3.15,8.14-0.06c6.65-8.14,9.23-18,11.98-28.06
		C202.62,239.47,192.07,239.42,180.81,241.24 M173.03,267.56c-2.53-7.76-5.01-15.38-7.52-23.06c-6.38,1.85-12.47,4.3-18.08,8.23
		C155.18,259.44,163.64,264.36,173.03,267.56 M221.64,267.14c9.53-3.14,18.1-7.85,25.85-15.28c-6.42-2.69-12.39-5.19-18.21-7.62
		C226.6,252.27,224.14,259.63,221.64,267.14 M147.1,141.53c6.4,2.72,12.38,5.26,18.28,7.77c2.65-7.95,5.15-15.42,7.68-23.02
		C163.62,129.55,155.01,134.16,147.1,141.53 M247.28,141.61c-8.12-7.18-16.62-12.05-25.98-15.3c2.57,7.62,5.09,15.09,7.76,23.02
		C235,146.82,240.9,144.31,247.28,141.61"/>
	<path class="st0" d="M178.68,46.04c4.4,2.99,9.07,5.04,14.27,5.82c7.78,1.16,14.85-0.79,21.41-4.85c1.27-0.79,2.07-0.83,3.27,0.1
		c4.42,3.43,7.14,7.93,8.06,13.34c0.98,5.73,1.67,11.51,2.23,17.3c0.43,4.42-1.38,6.31-5.78,7.12c-14.71,2.72-29.46,2.69-44.25,0.93
		c-2.14-0.26-4.28-0.65-6.38-1.12c-3.73-0.84-5.32-3.4-4.79-7.15c0.8-5.68,1.31-11.4,2.26-17.05
		C170.02,54.28,173.31,49.44,178.68,46.04"/>
	<path class="st0" d="M215.18,347.45c-4.57-3.25-9.6-5.22-15.16-5.91c-7.35-0.91-14.06,0.89-20.21,4.73
		c-1.71,1.07-2.75,0.89-4.11-0.26c-4.11-3.46-6.73-7.84-7.59-13.09c-0.91-5.57-1.6-11.18-2.16-16.8c-0.49-4.89,1.27-6.72,6.11-7.54
		c9.55-1.6,19.17-2.45,28.83-1.92c7.04,0.39,14.07,1.22,21.08,2.1c3.96,0.49,5.68,3.31,5.13,7.34c-0.76,5.51-1.32,11.06-2.18,16.55
		C223.94,338.98,220.64,343.88,215.18,347.45"/>
	<path class="st0" d="M317.53,108.64c0.13,4.72-1.64,9.31-4.71,13.4c-3.09,4.12-6.28,8.18-9.48,12.22c-2.37,3-5.36,3.53-8.55,1.39
		c-14.49-9.69-26.66-21.73-36.3-36.27c-1.9-2.87-1.64-5.98,0.96-8.06c5.06-4.05,10.15-8.1,15.51-11.73
		c4.17-2.83,9.02-3.8,14.07-2.76c0.72,0.15,1.69,1.07,1.83,1.78c2.64,13.18,10.96,20.81,23.56,24.31
		C317.5,103.79,317.52,103.72,317.53,108.64"/>
	<path class="st0" d="M87.64,196.87c-0.94,8.38-1.78,16.72-2.84,25.03c-0.48,3.75-3.31,5.83-7.1,5.34c-6.02-0.78-12.04-1.58-18-2.73
		c-5.06-0.98-9.19-3.75-12.45-7.77c-0.86-1.06-1.08-1.91-0.23-3.26c7.05-11.21,6.93-22.57,0.2-33.85c-0.97-1.62-0.87-2.61,0.22-3.93
		c3.78-4.61,8.68-7.19,14.52-7.91c5.2-0.64,10.43-1.08,15.65-1.58c4.26-0.41,6.67,1.21,7.19,5.35
		C85.87,179.94,86.7,188.37,87.64,196.87"/>
	<path class="st0" d="M306.22,196.67c0.94-8.4,1.78-16.74,2.84-25.06c0.49-3.88,3.32-5.87,7.29-5.38
		c6.27,0.78,12.57,1.44,18.77,2.62c4.8,0.91,8.62,3.77,11.61,7.68c0.83,1.08,0.9,1.88,0.14,3.09c-7.17,11.4-7.04,22.85,0,34.25
		c0.75,1.21,0.7,2.03-0.14,3.09c-3.99,5.04-9.3,7.67-15.57,8.5c-5.03,0.66-10.07,1.29-15.11,1.8c-4.12,0.42-6.47-1.27-6.98-5.3
		C308,213.57,307.16,205.14,306.22,196.67"/>
	<path class="st0" d="M76.43,285.07c-0.2-5.13,1.6-9.62,4.63-13.64c3.16-4.18,6.39-8.32,9.64-12.43c2.21-2.79,5.18-3.3,8.16-1.34
		c14.65,9.67,26.74,21.91,36.53,36.43c1.81,2.68,1.76,5.77-0.65,7.69c-5.65,4.51-11.37,8.95-17.4,12.92
		c-3.66,2.42-8.09,3.06-12.5,1.92c-0.73-0.19-1.68-1.09-1.82-1.8c-2.79-13.71-11.52-21.39-24.71-24.73
		c-0.75-0.19-1.52-1.24-1.8-2.06C76.19,287.15,76.43,286.07,76.43,285.07"/>
	<path class="st0" d="M108.65,76.38c4.85-0.2,9.15,1.42,12.98,4.27c4.14,3.07,8.22,6.22,12.28,9.39c3.69,2.88,4.1,5.57,1.48,9.48
		c-7.76,11.56-17.16,21.58-28.22,30.06c-2.51,1.92-5.04,3.81-7.67,5.56c-3.16,2.1-6.19,1.59-8.57-1.38
		c-3.32-4.15-6.66-8.31-9.82-12.58c-3.53-4.77-5.34-10.06-4.34-16.12c0.25-1.52,0.89-2,2.34-2.29
		c12.69-2.53,21.73-11.68,24.36-24.37c0.16-0.77,1.17-1.65,1.97-1.92C106.4,76.12,107.57,76.38,108.65,76.38"/>
	<path class="st0" d="M285.15,317.1c-4.85,0.17-9.14-1.43-12.97-4.3c-4.26-3.19-8.48-6.44-12.67-9.71c-3.07-2.4-3.57-5.24-1.43-8.53
		c9.62-14.79,22.14-26.69,36.71-36.51c2.58-1.74,5.64-1.36,7.63,1.1c3.92,4.85,7.84,9.71,11.39,14.82c3.03,4.36,4.25,9.37,3.11,14.7
		c-0.15,0.73-1.05,1.71-1.75,1.85c-13.71,2.78-21.37,11.52-24.78,24.64c-0.2,0.77-1.21,1.6-2.03,1.87
		C287.4,317.35,286.23,317.1,285.15,317.1"/>
	<path class="st0" d="M176.21,372.81c0.23-11.29,9.55-20.33,20.61-20.03c11.31,0.31,20.25,9.51,20.07,20.64
		c-0.18,11.12-9.64,20.3-20.68,20.06C184.97,393.24,175.98,383.95,176.21,372.81"/>
	<path class="st0" d="M217.66,20.3c0.05,11.21-9.02,20.35-20.25,20.41c-11.12,0.06-20.41-9.16-20.44-20.28
		C176.94,9.31,186.14,0.06,197.28,0C208.43-0.06,217.61,9.09,217.66,20.3"/>
	<path class="st0" d="M321.92,92.34c-11.22,0-20.33-9.17-20.22-20.35c0.11-11.31,9.13-20.23,20.41-20.2
		c11.13,0.03,20.18,9.02,20.26,20.13C342.46,83.23,333.33,92.34,321.92,92.34"/>
	<path class="st0" d="M20.73,176.05c11.29,0.25,20.34,9.58,20.02,20.63c-0.33,11.28-9.56,20.2-20.71,20.01
		C8.92,216.49-0.27,207,0.01,195.99C0.29,184.73,9.56,175.81,20.73,176.05"/>
	<path class="st0" d="M301.41,321.74c0-11.24,9.05-20.33,20.28-20.36c11.18-0.03,20.29,9.11,20.28,20.34
		c-0.01,11.28-9.04,20.34-20.28,20.34C310.46,342.07,301.41,333,301.41,321.74"/>
	<path class="st0" d="M92.07,321.37c-0.03,11.29-9.01,20.3-20.24,20.31c-11.15,0.01-20.36-9.15-20.38-20.25
		c-0.02-11.25,9.23-20.37,20.59-20.29C83.2,301.22,92.1,310.2,92.07,321.37"/>
	<path class="st0" d="M92.43,71.55c0.03,11.31-9.2,20.61-20.37,20.53c-11.2-0.08-20.22-9.19-20.2-20.4
		c0.02-11.28,9.07-20.31,20.33-20.26C83.3,51.47,92.4,60.52,92.43,71.55"/>
	<path class="st0" d="M373.8,217.46c-11.03,0.37-20.23-8.64-20.67-20.23c-0.41-10.64,8.83-20.09,19.97-20.4
		c11.06-0.31,20.41,8.8,20.74,20.22C394.15,207.69,384.93,217.09,373.8,217.46"/>
</g>
</svg>
