<?xml version="1.0" encoding="utf-8"?>
<!-- Generator: Adobe Illustrator 25.2.1, SVG Export Plug-In . SVG Version: 6.00 Build 0)  -->
<svg version="1.1" id="Camada_1" xmlns="http://www.w3.org/2000/svg" xmlns:xlink="http://www.w3.org/1999/xlink" x="0px" y="0px"
	 viewBox="0 0 511 419.33" style="enable-background:new 0 0 511 419.33;" xml:space="preserve">
<style type="text/css">
	.st0{clip-path:url(#SVGID_2_);fill:#4DAD33;}
</style>
<g>
	<defs>
		<rect id="SVGID_1_" width="511" height="419.33"/>
	</defs>
	<clipPath id="SVGID_2_">
		<use xlink:href="#SVGID_1_"  style="overflow:visible;"/>
	</clipPath>
	<path class="st0" d="M511,414.22c-3.21,4.14-7.43,5.11-12.59,5.11c-162.01-0.11-324.02-0.09-486.04-0.1
		c-9.98,0-12.36-2.36-12.37-12.24c0-15.14-0.02-30.27,0.01-45.41c0.02-7.32,2.87-10.31,10.13-10.51c4.82-0.13,9.66-0.29,14.46,0.05
		c3.54,0.25,5.29-1.28,7.06-4.1c6.65-10.58,11.88-21.37,10.51-34.5c-1.12-10.75-6.87-19.23-12.29-27.94
		c-0.56-0.9-2.55-1.24-3.9-1.28c-5.15-0.14-10.31,0.03-15.47-0.08c-9.47-0.21-13.15-6.66-8.47-14.78c3.4-5.9,7.17-11.6,10.25-17.65
		c6.36-12.51,6.4-25.27,0.01-37.79c-3.17-6.2-7.01-12.05-10.46-18.11c-4.36-7.66-0.66-14.08,8.16-14.18
		c5.32-0.06,10.65,0.08,15.97-0.08c1.33-0.04,3.27-0.44,3.88-1.36c7.22-11.05,14.49-22.34,12.1-36.38
		c-1.09-6.4-3.51-12.69-6.11-18.69c-2.17-4.98-5.54-9.44-8.29-14.18c-4.55-7.85-0.92-14.2,8.22-14.48c1.66-0.05,3.33-0.01,4.99-0.01
		c77.01,0,154.03,0.02,231.04-0.03c10.63-0.01,21.21,0.03,31.89,5.34c-3.37-12.69-6.5-24.48-9.64-36.26
		c-2.65-9.93-5.34-19.84-7.96-29.78c-1.91-7.27,0.13-11.02,7.46-13.02c26.39-7.18,52.8-14.26,79.22-21.29
		c6.47-1.72,10.41,0.98,12.33,8.12c7.35,27.37,14.67,54.75,22,82.12c21.43,80.04,42.85,160.09,64.29,240.13
		c2.84,10.61,1.18,13.49-9.55,16.35c-3.59,0.96-7.17,1.97-10.57,3.82c15.75,0,31.49,0.11,47.24-0.06c5.1-0.06,9.49,0.85,12.48,5.36
		V414.22z M49.35,351.04h7.05c72.15,0,144.3,0.01,216.45-0.02c3.98,0,7.97-0.21,11.93-0.55c20.33-1.74,34.56-22.52,28.89-42.12
		c-4.72-16.33-17.03-25.09-35.55-25.09c-74.31-0.03-148.62-0.01-222.93-0.01c-1.61,0-3.21,0-5.65,0
		C63.1,305.92,63.2,328.09,49.35,351.04 M49.51,180.52c1.61,0.1,2.27,0.18,2.93,0.18c75.85,0.01,151.69,0.03,227.54-0.06
		c3.44,0,6.99-0.54,10.31-1.49c16.91-4.82,26.78-20.71,24.1-38.46c-2.37-15.69-17.1-27.87-34.1-27.89
		c-75.51-0.05-151.03-0.02-226.54-0.01c-1.21,0-2.42,0.23-4.1,0.39C63.19,135.74,63.11,157.91,49.51,180.52 M370.72,350.79
		c-15.75-58.76-31.29-116.72-46.85-174.74c-4.93,4.52-9.03,9.19-14,12.6c-5.06,3.47-10.96,5.7-16.53,8.49
		c18.07,23.41,17.84,46.75-0.47,70.05c18.33,5.38,30.98,16.43,36.8,34.43c5.8,17.9,1.45,34.14-9.95,49.16H370.72z M161.62,223.53
		c-29.75,0-59.49,0-89.24,0c-8.69,0-12.66,2.71-12.53,8.54c0.13,5.55,4.22,8.32,12.42,8.32c59.66,0.01,119.32,0.01,178.98-0.02
		c2.13,0,4.33-0.16,6.39-0.69c4.28-1.1,6.25-4.08,5.98-8.49c-0.31-5-3.79-7.65-10.26-7.65C222.77,223.52,192.2,223.53,161.62,223.53
		 M304.42,36.68c2.75,10.15,5.44,19.53,7.76,29c0.77,3.16,1.94,3.47,4.85,2.65c12.43-3.51,24.93-6.76,37.41-10.1
		c7.96-2.13,15.93-4.24,24.3-6.47c-3-11.17-5.86-21.83-8.76-32.64C348.04,25,326.47,30.78,304.42,36.68 M444.89,298.84
		c-22.11,5.93-43.65,11.7-65.46,17.55c2.71,10.23,5.19,19.99,8.01,29.64c0.3,1.03,2.77,2.38,3.85,2.1
		c19.87-5.14,39.69-10.47,59.47-15.95c1-0.28,2.38-2.47,2.15-3.41C450.47,318.98,447.74,309.28,444.89,298.84 M400.36,231.96
		c-0.15-0.65-0.46-2.26-0.88-3.85c-6.5-24.47-13.02-48.94-19.54-73.41c-1.96-7.35-3.79-14.75-6.02-22.03
		c-1.51-4.95-5.94-7.14-10.59-5.81c-4.18,1.19-6.37,5.36-5.41,10.31c0.22,1.14,0.48,2.27,0.78,3.39
		c5.2,19.51,10.39,39.02,15.63,58.52c3.26,12.15,6.47,24.31,9.95,36.4c1.36,4.74,5.11,6.86,9.48,6.1
		C397.82,240.87,400.42,237.48,400.36,231.96 M374.92,299.7c22.05-5.92,43.58-11.7,65.58-17.6c-1.53-5.51-2.97-10.67-4.5-16.18
		c-22.12,5.95-43.63,11.73-65.39,17.57C372.1,289.1,373.41,294.03,374.92,299.7 M322.03,102.24c22.2-5.95,43.73-11.72,65.61-17.59
		c-1.6-5.67-3.06-10.82-4.57-16.17c-22.2,5.97-43.69,11.74-65.38,17.57C319.21,91.73,320.53,96.66,322.03,102.24"/>
	<path class="st0" d="M187.08,325.56c-29.91,0-59.82,0.01-89.73,0c-8.02,0-12.21-2.9-12.29-8.43c-0.08-5.56,4.25-8.68,12.11-8.68
		c60.15,0,120.31,0,180.46,0.01c1.66,0,3.36-0.09,4.97,0.22c4.39,0.84,7.12,4.57,6.84,9.01c-0.27,4.24-3.2,7.25-7.65,7.7
		c-1.81,0.18-3.65,0.16-5.48,0.16C246.57,325.56,216.83,325.56,187.08,325.56"/>
	<path class="st0" d="M187.67,137.94c30.08,0,60.16-0.01,90.24,0.01c7.35,0.01,11.27,2.84,11.52,8.2c0.21,4.39-1.8,7.38-6.02,8.56
		c-2.04,0.57-4.25,0.75-6.38,0.75c-59.83,0.04-119.66,0.03-179.49,0.03c-0.17,0-0.33,0-0.5,0c-7.68-0.07-12.16-3.42-11.99-8.96
		c0.17-5.44,4.43-8.57,11.86-8.58C127.18,137.93,157.42,137.94,187.67,137.94"/>
</g>
</svg>
