<?xml version="1.0" encoding="utf-8"?>
<!-- Generator: Adobe Illustrator 25.2.1, SVG Export Plug-In . SVG Version: 6.00 Build 0)  -->
<svg version="1.1" id="Camada_1" xmlns="http://www.w3.org/2000/svg" xmlns:xlink="http://www.w3.org/1999/xlink" x="0px" y="0px"
	 viewBox="0 0 377.2 387.15" style="enable-background:new 0 0 377.2 387.15;" xml:space="preserve">
<style type="text/css">
	.st0{clip-path:url(#SVGID_2_);fill:#273477;}
</style>
<g>
	<defs>
		<rect id="SVGID_1_" width="377.2" height="387.15"/>
	</defs>
	<clipPath id="SVGID_2_">
		<use xlink:href="#SVGID_1_"  style="overflow:visible;"/>
	</clipPath>
	<path class="st0" d="M185.98,387.15c0-3.67,0.07-6.98-0.01-10.29c-0.29-12.12-1.36-24.16-5.76-35.55c-1.9-4.91-4.4-9.75-7.5-14
		c-6.19-8.5-15.04-12.19-25.48-11.59c-7.56,0.44-15.08,1.52-22.64,2.04c-4.22,0.29-8.52,0.44-12.7-0.06
		c-8.33-1-13.1-6.67-12.79-15.06c0.12-3.36,0.78-6.8,1.79-10.01c2.97-9.46-0.06-18.71-8.3-24.35c-0.69-0.47-1.39-0.92-2.01-1.47
		c-3.1-2.75-3.38-5.74-0.01-8.14c3.68-2.63,7.75-4.9,11.94-6.61c7.85-3.22,15.92-5.9,23.88-8.87c1.18-0.44,2.23-1.22,3.34-1.85
		c-0.01-0.31-0.02-0.62-0.03-0.93c-1.82-0.61-3.6-1.39-5.46-1.79c-8.39-1.78-16.84-3.27-25.19-5.24c-3.35-0.79-6.63-2.27-9.65-3.96
		c-3.52-1.98-3.76-4.52-1.67-7.99c1.27-2.12,2.57-4.35,3.2-6.7c1.31-4.85-0.71-8.67-5.41-10.69c-2.36-1.01-4.87-1.68-7.32-2.48
		c-9.92-3.26-12.14-9.24-5.82-17.53c5.18-6.8,11.22-12.96,16.75-19.5c7.04-8.33,13.92-16.78,20.91-25.15
		c4.23-5.07,4.95-10.55,2.17-16.52c-4.46-9.56-2.98-19.36-1.14-29.14c1.76-9.33,5.95-17.78,9.71-26.4
		c1.84-4.23,3.53-8.69,4.24-13.22c0.62-3.94-0.38-8.11-0.41-12.18c-0.06-8.06-0.06-16.12,0.14-24.17c0.12-4.64,2.86-7.59,7.02-9.45
		c8.25-3.67,17.02-5.25,25.87-6.35c28.15-3.5,56.22-1.86,84.24,1.64c17.99,2.25,35.64,5.98,52.66,12.33
		c21.77,8.12,41.33,19.66,56.73,37.41c15.62,18,23.69,39.1,25.52,62.71c1.55,20.02-1.65,39.46-6.94,58.69
		c-6,21.82-15.32,42.17-26.52,61.75c-6.18,10.81-11.31,22.07-13.33,34.51c-1.94,11.92-1.91,23.9-0.46,35.84
		c1.27,10.48,3.01,20.91,4.68,31.34c0.31,1.95-0.3,2.6-2.03,3.14c-18.05,5.62-36.07,11.31-54.1,16.98
		c-29.79,9.37-59.58,18.74-89.37,28.1C187.96,386.64,187.16,386.83,185.98,387.15"/>
	<path class="st0" d="M35.36,238.1c9.33,0,18.65-0.01,27.98,0c4.22,0,7.02,2.49,6.94,6.11c-0.08,3.59-2.74,5.84-6.97,5.84
		c-18.9,0-37.81,0.01-56.71-0.01c-4.83-0.01-7.82-3.99-6.13-8.16c1.1-2.72,3.29-3.78,6.16-3.77c9.58,0.03,19.15,0.01,28.73,0.01
		V238.1z"/>
	<path class="st0" d="M25.81,289.64c-3.42-0.03-5.82-1.81-6.44-4.27c-0.73-2.93,0.26-5.57,2.99-6.99c4.65-2.42,9.39-4.65,14.1-6.95
		c8.08-3.93,16.16-7.85,24.24-11.79c3.79-1.85,7.4-0.91,8.98,2.35c1.56,3.23,0.21,6.56-3.5,8.37c-12.56,6.14-25.12,12.27-37.7,18.37
		C27.46,289.23,26.31,289.48,25.81,289.64"/>
	<path class="st0" d="M25.76,198.54c0.59,0.2,1.88,0.52,3.06,1.08c12.51,6.05,25,12.13,37.48,18.23c3.51,1.72,4.89,5.11,3.44,8.24
		c-1.47,3.18-4.97,4.4-8.45,2.71c-12.88-6.23-25.74-12.51-38.58-18.83c-2.95-1.45-4.06-3.99-3.35-7.02
		C19.94,200.45,22.35,198.57,25.76,198.54"/>
</g>
</svg>
