<?xml version="1.0" encoding="utf-8"?>
<!-- Generator: Adobe Illustrator 25.2.1, SVG Export Plug-In . SVG Version: 6.00 Build 0)  -->
<svg version="1.1" id="Camada_1" xmlns="http://www.w3.org/2000/svg" xmlns:xlink="http://www.w3.org/1999/xlink" x="0px" y="0px"
	 viewBox="0 0 429.39 486.52" style="enable-background:new 0 0 429.39 486.52;" xml:space="preserve">
<style type="text/css">
	.st0{clip-path:url(#SVGID_2_);fill:#4EAE33;}
</style>
<g>
	<defs>
		<rect id="SVGID_1_" width="429.39" height="486.52"/>
	</defs>
	<clipPath id="SVGID_2_">
		<use xlink:href="#SVGID_1_"  style="overflow:visible;"/>
	</clipPath>
	<path class="st0" d="M270.54,0.04c26.05,0.79,57.15,7.03,85.82,22.37c34.77,18.59,60.49,45.52,69.53,84.81
		c9.89,43.01-0.97,80.82-35,109.87c-15.09,12.89-32.38,23.22-48.77,34.56c-14.76,10.2-29.79,20.01-44.45,30.34
		c-11.27,7.94-17.9,19.39-22.77,32.05c-2.62,6.82-5.4,13.61-8.69,20.12c-7.8,15.44-22.99,22.15-40.26,18.2
		c-18.43-4.22-30.72-17.19-30.74-34.26c-0.03-33.78,12.59-62.64,38.38-84.29c15.95-13.39,34.24-23.99,51.38-35.98
		c13.19-9.22,27.2-17.58,39.17-28.21c32.08-28.46,19.91-77.51-18.31-94.35c-17.1-7.53-35.09-9.6-53.58-6.23
		c-14.42,2.63-25.28,11.2-33.84,22.26c-8.19,10.6-15.41,22.03-22.21,33.6c-6.06,10.33-12.2,20.28-23.46,25.62
		c-18.51,8.78-42.46,0.21-52.81-18.22c-7.56-13.46-6.17-26.82-1.05-40.39c16.51-43.74,49.2-69.81,92.39-84.29
		C228.47,1.86,246.2-0.34,270.54,0.04"/>
	<path class="st0" d="M65.44,360.82c-0.08-15.44,6.44-28.05,15.91-39.49c6.47-7.82,13.09-15.52,19.43-23.44
		c5.31-6.65,10.08-13.59,9.79-22.77c-0.57-18.07-16.5-28.99-33.57-27.67c-3.77,0.29-7.53,1.25-11.21,2.23
		c-9.73,2.6-16.34,8.9-19.65,18.27c-2.42,6.86-4.39,13.92-5.91,21.03c-2.51,11.7-10.42,18.67-21.05,17.79
		C7.6,305.82,0.04,297.52,0,285.41c-0.08-23.83,11.46-41.59,30.09-55c18.92-13.62,40.6-17.64,63.47-15.57
		c17.84,1.62,33.64,8.22,45.52,22c18.71,21.69,18.67,49.74,0.34,72.48c-7.31,9.07-14.4,18.34-22.24,26.93
		c-8.92,9.77-12.73,21.1-13.15,34.03c-0.35,10.56-6.11,16.87-15.8,17.89c-10.68,1.12-18.01-3.49-20.72-13.62
		C66.31,370.11,66.09,365.41,65.44,360.82"/>
	<path class="st0" d="M270.05,417.36c-1.62,9.81-3.54,21.57-5.5,33.32c-1.09,6.53-2.29,13.04-3.39,19.57
		c-2.15,12.76-8.71,17.84-21.47,15.85c-17.5-2.74-34.95-5.76-52.38-8.89c-11.35-2.04-16.01-8.56-14.24-20.21
		c2.67-17.66,5.53-35.3,8.68-52.89c2.17-12.13,9.17-16.84,21.31-14.86c17.78,2.89,35.55,5.92,53.31,8.94
		C265.29,399.72,270.39,406.17,270.05,417.36"/>
	<path class="st0" d="M121.02,437.24c0.31,7.65-1.17,9.93-7.39,11.05c-8.62,1.55-17.31,2.86-26.02,3.79
		c-6.12,0.65-8.68-1.85-9.62-8.03c-1.24-8.18-2.52-16.35-3.78-24.53c-0.87-5.64,1.62-9.4,7.32-10.36
		c8.81-1.48,17.66-2.79,26.52-3.91c5.17-0.66,8.45,1.83,9.4,7.34C118.93,421.24,119.99,429.96,121.02,437.24"/>
</g>
</svg>
