<?xml version="1.0" encoding="utf-8"?>
<!-- Generator: Adobe Illustrator 25.2.1, SVG Export Plug-In . SVG Version: 6.00 Build 0)  -->
<svg version="1.1" id="Camada_1" xmlns="http://www.w3.org/2000/svg" xmlns:xlink="http://www.w3.org/1999/xlink" x="0px" y="0px"
	 viewBox="0 0 511.1 483.05" style="enable-background:new 0 0 511.1 483.05;" xml:space="preserve">
<style type="text/css">
	.st0{clip-path:url(#SVGID_2_);fill:#4EAE33;}
</style>
<g>
	<defs>
		<rect id="SVGID_1_" width="511.1" height="483.05"/>
	</defs>
	<clipPath id="SVGID_2_">
		<use xlink:href="#SVGID_1_"  style="overflow:visible;"/>
	</clipPath>
	<path class="st0" d="M511.1,136.82c-1.35,6.62-2.46,13.3-4.1,19.85c-4.21,16.82-11.89,31.97-22.61,45.58
		c-5.19,6.6-13.4,7.74-19.82,2.89c-5.78-4.37-6.94-12.65-2.06-19.14c10.26-13.65,17.04-28.63,19.96-45.55
		c7.94-45.94-19.67-92.5-64-107.52c-15.55-5.27-31.37-6.83-47.6-4.19c-9.55,1.55-16.41-2.9-17.87-11.41
		c-1.32-7.66,3.84-13.94,13.03-15.65c3.42-0.64,6.89-1.17,10.36-1.39c58.05-3.76,109.11,29.8,128.15,84.62
		c2.75,7.91,3.76,16.43,5.6,24.66c0.25,1.12,0.64,2.2,0.97,3.3V136.82z"/>
	<path class="st0" d="M210.53,324.06c2.71,14.48,5.45,27.45,7.51,40.53c5.52,35.05,8.56,70.24,4.63,105.71
		c-0.86,7.74-6.17,13.03-13.91,12.75c-16.94-0.62-33.88-1.48-50.78-2.71c-9.41-0.68-13.33-6.14-14.2-15.98
		c-1.67-19-3.2-38.06-6.1-56.89c-2.35-15.27-8.82-29.09-20.61-40.15c-8.31,4.94-16.41,9.8-24.56,14.59
		c-9.43,5.55-15.09,4.26-21.81-4.49c-0.85-1.11-3.1-2.08-4.38-1.77c-29.9,7.1-60.97-13.59-65.66-44.84
		c-2.4-15.95,1.68-30.33,11.88-42.81c2.06-2.52,2.65-4.14,0.88-7.26c-4-7.04-2.1-14.34,4.86-18.56
		c20.3-12.3,40.81-24.28,61.14-36.53c4.62-2.78,9.27-5.74,13.25-9.34c44.66-40.35,85.51-84.26,121.01-132.9
		c13.39-18.35,25.2-37.85,37.71-56.85c1.09-1.66,1.97-3.46,3-5.16c6.81-11.23,18.52-11.39,25.36-0.27
		c4.44,7.21,8.69,14.54,13.02,21.81c44.35,74.46,88.71,148.91,133.03,223.39c1.34,2.26,2.74,4.66,3.29,7.18
		c1.99,9.1-4.17,16.33-14.17,16.8c-9.3,0.44-18.61,0.54-27.9,1.1c-30.86,1.86-61.44,6.17-91.63,12.69
		C267.11,310.21,239.03,317.31,210.53,324.06 M105.4,241.97c1.04,1.9,1.85,3.51,2.77,5.05c12.65,21.26,25.44,42.43,37.85,63.83
		c2.49,4.3,4.67,5.12,9.32,3.47c39.39-14,79.49-25.54,120.38-34.28c30.35-6.48,60.89-11.77,91.83-14.54
		c7.98-0.71,15.96-1.51,24.49-2.33c-41.67-69.96-83-139.35-124.65-209.27C222.54,124.99,167.06,186.05,105.4,241.97"/>
	<path class="st0" d="M440.34,133.6c0.17,18.19-5.13,32.71-14.91,45.71c-4.89,6.5-12.75,7.79-19.35,3.21
		c-5.83-4.04-7.4-12.17-3.1-18.59c4.67-6.96,8.41-14.1,9.68-22.6c3.42-22.89-12.41-45.51-35.44-49.32
		c-5.95-0.98-12.19-0.17-18.3-0.17c-7.51-0.01-13.38-5.35-14.04-12.77c-0.59-6.68,4.16-12.91,11.26-14.22
		c3.9-0.72,7.93-1.24,11.88-1.14c30.26,0.79,52.52,14.49,65.96,41.79C438.59,114.86,440.63,124.92,440.34,133.6"/>
</g>
</svg>
